<svg width="155" height="25" viewBox="0 0 155 25" fill="none" xmlns="http://www.w3.org/2000/svg">
<g clip-path="url(#clip0_34_155)">
<path d="M8.89937 10.7179H0L9.39378 29.9999H18.2932L8.89937 10.7179Z" fill="#0B92D2"/>
<path d="M27.1923 5.7738H18.293L28.346 29.9999H37.2453L27.1923 5.7738Z" fill="#137BC0"/>
<path d="M18.293 5.7738H27.1924L18.293 29.9999H9.39363L18.293 5.7738Z" fill="#0E763F"/>
<path fill-rule="evenodd" clip-rule="evenodd" d="M13.2192 19.5854L9.39355 29.9998H18.2929L13.2192 19.5854Z" fill="#FFD100"/>
<path fill-rule="evenodd" clip-rule="evenodd" d="M9.39355 29.9998H18.2929L13.2192 19.5854L9.39355 29.9998Z" fill="#FFD100"/>
<path d="M38.3995 0.500122H47.2988L37.081 29.9999H28.1817L38.3995 0.500122Z" fill="#E20613"/>
<path fill-rule="evenodd" clip-rule="evenodd" d="M32.3054 18.0944L28.2566 29.7835L28.3464 30H37.2458L37.156 29.7835L32.3054 18.0944Z" fill="#0E4B9C"/>
<path fill-rule="evenodd" clip-rule="evenodd" d="M37.081 30L37.156 29.7835L32.3054 18.0944L28.2566 29.7835L28.1816 30H37.081Z" fill="#0E4B9C"/>
<path d="M51.2752 10.92H45.5742V7.69329H61.0991V10.92H55.3982V24.8044H51.2752V10.92Z" fill="white"/>
<path d="M68.1611 25C66.7189 25 65.4209 24.7148 64.2671 24.1444C63.1303 23.5577 62.2396 22.7511 61.5948 21.7244C60.9501 20.6977 60.6277 19.5326 60.6277 18.2288C60.6277 16.9251 60.9501 15.76 61.5948 14.7333C62.2396 13.7066 63.1303 12.9081 64.2671 12.3377C65.4209 11.7511 66.7189 11.4577 68.1611 11.4577C69.6033 11.4577 70.8928 11.7511 72.0296 12.3377C73.1664 12.9081 74.0571 13.7066 74.7019 14.7333C75.3466 15.76 75.669 16.9251 75.669 18.2288C75.669 19.5326 75.3466 20.6977 74.7019 21.7244C74.0571 22.7511 73.1664 23.5577 72.0296 24.1444C70.8928 24.7148 69.6033 25 68.1611 25ZM68.1611 21.8711C69.1791 21.8711 70.0105 21.5451 70.6552 20.8933C71.317 20.2251 71.6478 19.337 71.6478 18.2288C71.6478 17.1207 71.317 16.2407 70.6552 15.5888C70.0105 14.9207 69.1791 14.5866 68.1611 14.5866C67.1431 14.5866 66.3032 14.9207 65.6415 15.5888C64.9797 16.2407 64.6489 17.1207 64.6489 18.2288C64.6489 19.337 64.9797 20.2251 65.6415 20.8933C66.3032 21.5451 67.1431 21.8711 68.1611 21.8711Z" fill="white"/>
<path d="M84.202 19.6466L82.2932 21.4555V24.8044H78.3228V6.66663H82.2932V16.9333L88.0959 11.6533H92.8297L87.1288 17.2266L93.3387 24.8044H88.5286L84.202 19.6466Z" fill="white"/>
<path d="M103.347 11.4577C105.044 11.4577 106.41 11.9466 107.445 12.9244C108.497 13.9022 109.023 15.3526 109.023 17.2755V24.8044H105.052V17.8622C105.052 16.8192 104.815 16.0451 104.34 15.54C103.865 15.0185 103.178 14.7577 102.278 14.7577C101.277 14.7577 100.48 15.0592 99.8859 15.6622C99.2921 16.2488 98.9951 17.1288 98.9951 18.3022V24.8044H95.0248V11.6533H98.817V13.1933C99.343 12.6392 99.9962 12.2155 100.777 11.9222C101.557 11.6126 102.414 11.4577 103.347 11.4577Z" fill="white"/>
<path d="M126.183 18.2777C126.183 18.3266 126.158 18.6688 126.107 19.3044H115.748C115.935 20.1192 116.376 20.7629 117.072 21.2355C117.768 21.7081 118.633 21.9444 119.668 21.9444C120.38 21.9444 121.008 21.8466 121.551 21.6511C122.111 21.4392 122.629 21.1133 123.104 20.6733L125.216 22.8733C123.927 24.2911 122.043 25 119.566 25C118.022 25 116.656 24.7148 115.468 24.1444C114.281 23.5577 113.365 22.7511 112.72 21.7244C112.075 20.6977 111.753 19.5326 111.753 18.2288C111.753 16.9414 112.067 15.7844 112.694 14.7577C113.339 13.7148 114.213 12.9081 115.316 12.3377C116.436 11.7511 117.683 11.4577 119.057 11.4577C120.397 11.4577 121.611 11.7348 122.696 12.2888C123.782 12.8429 124.631 13.6414 125.242 14.6844C125.869 15.7111 126.183 16.9088 126.183 18.2777ZM119.082 14.3422C118.183 14.3422 117.428 14.5866 116.817 15.0755C116.207 15.5644 115.833 16.2326 115.698 17.08H122.442C122.306 16.2488 121.933 15.5888 121.322 15.1C120.711 14.5948 119.965 14.3422 119.082 14.3422Z" fill="white"/>
<path d="M132.619 13.3888C133.094 12.7533 133.73 12.2726 134.527 11.9466C135.342 11.6207 136.275 11.4577 137.327 11.4577V14.9777C136.886 14.9451 136.589 14.9288 136.436 14.9288C135.299 14.9288 134.409 15.2385 133.764 15.8577C133.119 16.4607 132.797 17.3733 132.797 18.5955V24.8044H128.826V11.6533H132.619V13.3888Z" fill="white"/>
<path d="M144.344 25C143.207 25 142.096 24.8696 141.01 24.6088C139.924 24.3318 139.059 23.9896 138.414 23.5822L139.737 20.8444C140.348 21.2192 141.086 21.5288 141.952 21.7733C142.817 22.0014 143.665 22.1155 144.497 22.1155C146.176 22.1155 147.016 21.7163 147.016 20.9177C147.016 20.5429 146.787 20.274 146.329 20.1111C145.871 19.9481 145.167 19.8096 144.217 19.6955C143.097 19.5326 142.172 19.3451 141.443 19.1333C140.713 18.9214 140.077 18.5466 139.534 18.0088C139.008 17.4711 138.745 16.7051 138.745 15.7111C138.745 14.88 138.991 14.1466 139.483 13.5111C139.992 12.8592 140.722 12.354 141.672 11.9955C142.639 11.637 143.776 11.4577 145.082 11.4577C146.049 11.4577 147.008 11.5637 147.958 11.7755C148.925 11.9711 149.723 12.2481 150.35 12.6066L149.027 15.32C147.822 14.6681 146.507 14.3422 145.082 14.3422C144.234 14.3422 143.597 14.4563 143.173 14.6844C142.749 14.9126 142.537 15.2059 142.537 15.5644C142.537 15.9718 142.766 16.257 143.224 16.42C143.682 16.5829 144.412 16.7377 145.413 16.8844C146.533 17.0637 147.449 17.2592 148.162 17.4711C148.874 17.6666 149.494 18.0333 150.02 18.5711C150.546 19.1088 150.809 19.8585 150.809 20.82C150.809 21.6348 150.554 22.36 150.045 22.9955C149.536 23.6311 148.789 24.1281 147.805 24.4866C146.838 24.8288 145.684 25 144.344 25Z" fill="white"/>
</g>
<defs>
<clipPath id="clip0_34_155">
<rect width="155" height="25" fill="white"/>
</clipPath>
</defs>
</svg>
